<svg xmlns="http://www.w3.org/2000/svg" viewBox="0 0 512 640">
  <defs>
    <linearGradient id="logo-grad" x1="0%" y1="0%" x2="0%" y2="100%">
      <stop offset="0%" style="stop-color:#f97316;stop-opacity:1" />
      <stop offset="100%" style="stop-color:#06b6d4;stop-opacity:1" />
    </linearGradient>
    <clipPath id="clip-right">
      <rect x="256" y="0" width="256" height="512" />
    </clipPath>
    <clipPath id="clip-left">
      <rect x="0" y="0" width="256" height="512" />
    </clipPath>
  </defs>
  
  <!-- Hexagon -->
  <path d="M256 10 L460 128 V384 L256 502 L52 384 V128 Z" fill="#334155" clip-path="url(#clip-left)" />
  <path d="M256 10 L460 128 V384 L256 502 L52 384 V128 Z" fill="url(#logo-grad)" clip-path="url(#clip-right)" />
  
  <!-- Internal Circuit Lines -->
  <g fill="none" stroke="white" stroke-width="26" stroke-linecap="round" stroke-linejoin="round">
    <!-- Left side -->
    <circle cx="210" cy="180" r="28" fill="white" stroke="none" />
    <path d="M210 180 V280 L280 326" />
    
    <!-- Right side -->
    <path d="M256 210 L300 160" />
    <circle cx="300" cy="160" r="28" fill="white" stroke="none" />
    
    <path d="M256 256 H315" />
    <circle cx="315" cy="256" r="28" fill="white" stroke="none" />
    
    <path d="M256 302 L300 352" />
    <circle cx="300" cy="352" r="28" fill="white" stroke="none" />
  </g>
  
  <!-- Text -->
  <text x="256" y="600" text-anchor="middle" font-family="Pretendard, Inter, system-ui, sans-serif" font-weight="800" font-size="94" fill="#334155">Creto Works</text>
</svg>
